User Type,Username,Date,Text
,marasa,2007-09-30T00:31Z,giati den mporo na katebaso tipota?
,drziakhan,2009-09-22T22:53Z,Any comments regarding quality?
,Klaproosje,2010-12-18T20:58Z,plz seed :-D
,bhobson333,2011-10-04T05:13Z,"Given the size, I was surprised how good this looks.  It looked great on my 60 inch DLP, much better than the 1.37 GB from sadwabang, which is jerky.  Sound is clearer in this one too, though it's only stereo; this movie doesn't really require 5.1

Format                           : AVI
Format/Info                      : Audio Video Interleave
File size                        : 700 MiB
Duration                         : 1h 40mn
Overall bit rate                 : 977 Kbps
Writing application              : Nandub v1.0rc2
Writing library                  : Nandub build 1853/release

Video
ID                               : 0
Format                           : MPEG-4 Visual
Format settings, BVOP            : Yes
Format settings, QPel            : No
Format settings, GMC             : No warppoints
Format settings, Matrix          : Default (H.263)
Codec ID                         : XVID
Codec ID/Hint                    : XviD
Duration                         : 1h 40mn
Bit rate                         : 817 Kbps
Width                            : 576 pixels
Height                           : 240 pixels
Display aspect ratio             : 2.40:1
Frame rate                       : 23.976 fps
Color space                      : YUV
Chroma subsampling               : 4:2:0
Bit depth                        : 8 bits
Scan type                        : Progressive
Compression mode                 : Lossy
Bits/(Pixel*Frame)               : 0.247
Stream size                      : 586 MiB (84%)

Audio
ID                               : 1
Format                           : MPEG Audio
Format version                   : Version 1
Format profile                   : Layer 3
Mode                             : Joint stereo
Mode extension                   : MS Stereo
Codec ID                         : 55
Codec ID/Hint                    : MP3
Duration                         : 1h 40mn
Bit rate mode                    : Variable
Bit rate                         : 147 Kbps
Channel(s)                       : 2 channels
Sampling rate                    : 48.0 KHz
Compression mode                 : Lossy
Stream size                      : 105 MiB (15%)
Alignment                        : Aligned on interleaves
Interleave, duration             : 24 ms (0.58 video frame)
Interleave, preload duration     : 375 ms
Writing library                  : LAME3.91 
Encoding settings                : -m j -V 1 -q 2 -lowpass 19.6 --vbr-new
"
